<?xml version="1.0" standalone="no"?>
<!DOCTYPE svg PUBLIC "-//W3C//DTD SVG 20010904//EN"
 "http://www.w3.org/TR/2001/REC-SVG-20010904/DTD/svg10.dtd">
<svg version="1.0" xmlns="http://www.w3.org/2000/svg"
 width="156.000000pt" height="156.000000pt" viewBox="0 0 156.000000 156.000000"
 preserveAspectRatio="xMidYMid meet">

<g transform="translate(0.000000,156.000000) scale(0.100000,-0.100000)"
fill="#000000" stroke="none">
<path d="M555 1196 c-44 -19 -103 -89 -111 -132 -15 -82 20 -240 62 -275 9 -8
14 -34 14 -79 l0 -68 -106 -39 -106 -38 -49 -97 c-27 -54 -49 -102 -49 -108 0
-7 135 -10 400 -10 265 0 400 3 400 10 0 6 -22 54 -49 108 l-49 97 -106 38
-106 39 0 65 c0 50 5 72 21 95 12 16 30 57 40 90 43 138 10 246 -93 299 -43
22 -71 23 -113 5z"/>
<path d="M953 1055 c-60 -36 -87 -97 -78 -173 7 -61 39 -144 61 -163 9 -7 14
-32 14 -70 0 -52 7 -73 60 -179 l60 -120 140 0 c85 0 140 4 140 10 0 5 -19 47
-41 93 l-41 83 -87 30 -86 31 -3 50 c-2 41 2 58 23 89 58 85 70 211 26 273
-25 35 -88 71 -123 71 -13 0 -42 -11 -65 -25z"/>
</g>
</svg>
