<?xml version="1.0" encoding="UTF-8" standalone="no"?>
<svg width="18px" height="13px" viewBox="0 0 18 13" version="1.1" xmlns="http://www.w3.org/2000/svg" xmlns:xlink="http://www.w3.org/1999/xlink" xmlns:sketch="http://www.bohemiancoding.com/sketch/ns">
    <!-- Generator: Sketch 3.2.2 (9983) - http://www.bohemiancoding.com/sketch -->
    <title>Fill 1</title>
    <desc>Created with Sketch.</desc>
    <defs></defs>
    <g id="Page-1" stroke="none" stroke-width="1" fill="none" fill-rule="evenodd" sketch:type="MSPage">
        <g id="Top-Bar" sketch:type="MSArtboardGroup" transform="translate(-994.000000, -1617.000000)" fill="#FFFFFF">
            <g id="Imported-Layers-5" sketch:type="MSLayerGroup" transform="translate(994.000000, 1617.000000)">
                <path d="M17.9658438,12.258737 C17.9881138,12.1761344 18,12.0893879 18,12 L18,1 C18,0.91061211 17.9881138,0.823865607 17.9658438,0.741262997 L9.35355339,9.35355339 L9,9.70710678 L8.64644661,9.35355339 L0.0341562153,0.741262997 L0.0341562153,0.741262997 C0.0118862402,0.823865607 0,0.91061211 0,1 L0,12 C0,12.0893879 0.0118862402,12.1761344 0.0341562153,12.258737 L0.0341562153,12.258737 L5.64644661,6.64644661 L6.35355339,7.35355339 L0.741262997,12.9658438 C0.823865607,12.9881138 0.91061211,13 1,13 L17,13 C17.0893879,13 17.1761344,12.9881138 17.258737,12.9658438 L11.6464466,7.35355339 L12.3535534,6.64644661 L17.9658438,12.258737 Z M0.741262997,0.0341562153 C0.823865607,0.0118862402 0.91061211,0 1,0 L17,0 C17.0893879,0 17.1761344,0.0118862402 17.258737,0.0341562153 L8.64644661,8.64644661 L9.35355339,8.64644661 L0.741262997,0.0341562153 L0.741262997,0.0341562153 Z" id="Fill-1" sketch:type="MSShapeGroup"></path>
            </g>
        </g>
    </g>
</svg>